<svg xmlns="http://www.w3.org/2000/svg" viewBox="0 0 640 320" width="640" height="320" role="img" aria-label="Court illustration">
  <defs>
    <linearGradient id="g1" x1="0" x2="1" y1="0" y2="1">
      <stop offset="0" stop-color="#93c5fd"/>
      <stop offset="1" stop-color="#a5b4fc"/>
    </linearGradient>
    <linearGradient id="g2" x1="0" x2="0" y1="0" y2="1">
      <stop offset="0" stop-color="#1d4ed8"/>
      <stop offset="1" stop-color="#2563eb"/>
    </linearGradient>
    <filter id="shadow" x="-50%" y="-50%" width="200%" height="200%">
      <feDropShadow dx="0" dy="8" stdDeviation="8" flood-color="#0f172a" flood-opacity="0.15"/>
    </filter>
  </defs>

  <rect x="0" y="0" width="640" height="320" fill="url(#g1)"/>

  <!-- courthouse base -->
  <g filter="url(#shadow)">
    <rect x="140" y="160" width="360" height="90" rx="8" ry="8" fill="#ffffff"/>
    <rect x="160" y="175" width="320" height="60" rx="6" ry="6" fill="#eef2ff" stroke="#e5e7eb"/>
    <rect x="220" y="190" width="60" height="40" rx="4" ry="4" fill="#ffffff" stroke="#e2e8f0"/>
    <rect x="300" y="190" width="60" height="40" rx="4" ry="4" fill="#ffffff" stroke="#e2e8f0"/>
    <rect x="380" y="190" width="60" height="40" rx="4" ry="4" fill="#ffffff" stroke="#e2e8f0"/>
  </g>

  <!-- pillars -->
  <g fill="#c7d2fe">
    <rect x="200" y="140" width="18" height="20" rx="3"/>
    <rect x="260" y="140" width="18" height="20" rx="3"/>
    <rect x="320" y="140" width="18" height="20" rx="3"/>
    <rect x="380" y="140" width="18" height="20" rx="3"/>
    <rect x="440" y="140" width="18" height="20" rx="3"/>
  </g>

  <!-- roof -->
  <g filter="url(#shadow)">
    <path d="M140 150 L320 80 L500 150 Z" fill="url(#g2)"/>
    <circle cx="320" cy="95" r="8" fill="#bfdbfe"/>
  </g>

  <!-- scale of justice -->
  <g stroke="#1e293b" stroke-width="2" fill="none">
    <line x1="70" y1="220" x2="110" y2="220"/>
    <line x1="90" y1="220" x2="90" y2="170"/>
    <line x1="68" y1="178" x2="112" y2="178"/>
    <line x1="90" y1="178" x2="70" y2="200"/>
    <line x1="90" y1="178" x2="110" y2="200"/>
    <circle cx="70" cy="200" r="10"/>
    <circle cx="110" cy="200" r="10"/>
  </g>

  <!-- decorative shapes -->
  <g opacity="0.3">
    <circle cx="560" cy="70" r="24" fill="#22c55e"/>
    <rect x="540" y="240" width="40" height="40" rx="8" fill="#f59e0b"/>
  </g>
</svg>


